<svg width="493" height="493" viewBox="0 0 493 493" fill="none" xmlns="http://www.w3.org/2000/svg">
<g clip-path="url(#clip0_107_345)">
<path d="M493 246.5C493.086 304.687 472.504 361.014 434.923 405.437C433.558 407.058 432.168 408.653 430.752 410.239C414.09 428.978 394.681 445.08 373.187 457.995C368.257 460.955 363.219 463.744 358.073 466.363C357.553 466.627 357.024 466.891 356.504 467.147C355.881 467.463 355.25 467.77 354.619 468.077C341.597 474.451 328.032 479.652 314.087 483.618C312.637 484.027 311.184 484.425 309.729 484.812C291.384 489.666 272.539 492.382 253.571 492.906C252.581 492.932 251.609 492.949 250.671 492.966C250.338 492.974 250.014 492.983 249.69 492.983C248.624 492.991 247.566 493 246.5 493C226.511 493.015 206.593 490.6 187.186 485.81C185.242 485.332 183.306 484.829 181.378 484.3C171.224 481.528 161.261 478.101 151.551 474.039C146.433 471.907 141.406 469.607 136.471 467.139C135.353 466.576 134.236 466.013 133.136 465.433C132.666 465.203 132.206 464.955 131.745 464.717C105.439 450.832 81.8484 432.323 62.1026 410.077C60.7379 408.55 59.3988 406.998 58.0767 405.437C36.3205 379.642 20.0918 349.655 10.3957 317.333C0.699596 285.011 -2.25742 251.042 1.70779 217.531C5.67301 184.02 16.476 151.679 33.4478 122.513C50.4195 93.3463 73.1985 67.9747 100.374 47.9694C101.773 46.9374 103.18 45.9138 104.605 44.9159C104.886 44.7197 105.168 44.5235 105.449 44.3273C130.477 26.796 158.569 14.1099 188.27 6.92587C189.958 6.50793 191.647 6.11558 193.353 5.74882C225.524 -1.28821 258.771 -1.87094 291.169 4.0344C292.866 4.34999 294.563 4.67411 296.252 5.02381C325.688 11.0614 353.761 22.4615 379.073 38.6553C379.636 39.0135 380.198 39.3718 380.761 39.7471C381.896 40.4806 383.03 41.2312 384.148 41.9903C417.677 64.532 445.145 94.9782 464.128 130.643C483.112 166.309 493.027 206.097 493 246.5Z" fill="#F2F2F2"/>
<path d="M184.235 374.023L105.449 381.017L104.605 381.094V44.9159C104.886 44.7197 105.168 44.5235 105.449 44.3274C121.869 32.8422 139.631 23.407 158.34 16.2315L162.366 71.7579L162.733 76.8415L166.716 131.907L167.944 148.847L184.09 372.061L184.235 374.023Z" fill="#CCCCCC"/>
<path d="M379.073 38.6553C379.636 39.0135 380.199 39.3718 380.761 39.7471V381.094L379.073 380.941L301.139 374.023L301.284 372.061L317.431 148.847L318.659 131.907L322.642 76.8415L323.009 71.7579L327.231 13.5276C345.438 19.8389 362.839 28.2729 379.073 38.6553Z" fill="#CCCCCC"/>
<path d="M379.073 38.6553V385.751C379.073 392.413 374.484 397.829 368.837 397.829H115.684C111.01 397.829 107.044 394.11 105.841 389.035C105.579 387.96 105.447 386.858 105.449 385.751V44.3274C105.168 44.5236 104.886 44.7197 104.605 44.9159C103.18 45.9138 101.773 46.9374 100.374 47.9694V385.751C100.299 390.811 102.188 395.703 105.645 399.398C107.458 401.298 109.751 402.671 112.281 403.373C113.39 403.675 114.535 403.827 115.684 403.825H368.837C369.99 403.826 371.137 403.674 372.249 403.373C379.056 401.539 384.148 394.34 384.148 385.751V41.9903C383.03 41.2312 381.896 40.4806 380.761 39.7471C380.198 39.3718 379.636 39.0135 379.073 38.6553Z" fill="#CCCCCC"/>
<path d="M381.612 71.7614H102.912V76.844H381.612V71.7614Z" fill="#CCCCCC"/>
<path d="M188.27 6.92589C189.959 6.50795 191.647 6.11561 193.353 5.74884V143.763H188.27V6.92589Z" fill="#CCCCCC"/>
<path d="M291.169 4.03439C292.866 4.34998 294.563 4.6741 296.252 5.02381V143.763H291.169V4.03439Z" fill="#CCCCCC"/>
<path d="M413.378 372.061H79.6135C73.5465 372.061 67.7279 374.472 63.4378 378.762C59.1478 383.052 56.7376 388.87 56.7376 394.937C56.7376 401.004 59.1478 406.823 63.4378 411.113C67.7279 415.403 73.5465 417.813 79.6135 417.813H413.378C416.627 417.814 419.838 417.121 422.798 415.781C425.757 414.441 428.396 412.485 430.539 410.043C431.509 408.939 432.372 407.745 433.115 406.478C433.69 405.506 434.19 404.491 434.608 403.441C436.001 399.971 436.522 396.211 436.124 392.493C435.727 388.774 434.423 385.21 432.327 382.113C430.232 379.015 427.408 376.479 424.105 374.727C420.801 372.974 417.118 372.059 413.378 372.061Z" fill="#CCCCCC"/>
<path d="M381.612 131.906H104.606V148.849H381.612V131.906Z" fill="#CCCCCC"/>
<path d="M240.568 126.824H245.65C246.874 126.824 248.086 127.065 249.216 127.533C250.347 128.001 251.374 128.688 252.239 129.553C253.105 130.418 253.791 131.446 254.259 132.576C254.728 133.707 254.969 134.918 254.969 136.142H231.249C231.249 133.671 232.231 131.3 233.979 129.553C235.726 127.805 238.096 126.824 240.568 126.824H240.568Z" fill="#CCCCCC"/>
<path d="M434.923 405.437C427.513 414.217 419.499 422.468 410.939 430.13H82.0615C73.5009 422.468 65.4865 414.217 58.0768 405.437H434.923Z" fill="#3F3D56"/>
<path d="M274.033 319.913H218.66C218.362 319.909 218.065 319.956 217.781 320.049C217.18 320.235 216.655 320.609 216.282 321.115C215.909 321.622 215.708 322.235 215.709 322.864V410.341H276.993V322.864C276.992 322.476 276.915 322.091 276.766 321.733C276.617 321.374 276.399 321.049 276.124 320.775C275.85 320.501 275.523 320.284 275.164 320.136C274.806 319.988 274.421 319.912 274.033 319.913ZM253.076 363.071C253.078 364.49 252.61 365.87 251.746 366.995C250.92 368.087 249.773 368.892 248.466 369.298C247.159 369.703 245.758 369.688 244.46 369.255C243.162 368.821 242.032 367.991 241.231 366.882C240.429 365.773 239.996 364.44 239.992 363.071V352.921C240.008 351.197 240.704 349.548 241.93 348.335C243.155 347.121 244.809 346.44 246.534 346.44C248.259 346.44 249.914 347.121 251.139 348.335C252.364 349.548 253.06 351.197 253.076 352.921V363.071Z" fill="#2F2E41"/>
<path d="M215.521 407.544V415.979C215.521 416.417 215.694 416.836 216.003 417.147C216.311 417.457 216.73 417.632 217.167 417.634H275.534C275.971 417.63 276.389 417.455 276.697 417.145C277.005 416.835 277.179 416.416 277.18 415.979V407.544H215.521Z" fill="#3F3D56"/>
<path d="M365.724 183.399H129.033C126.999 183.402 125.05 184.21 123.611 185.648C122.172 187.085 121.361 189.034 121.356 191.067V350.789C121.358 352.825 122.167 354.776 123.607 356.215C125.046 357.655 126.998 358.464 129.033 358.466H365.724C367.76 358.464 369.711 357.655 371.15 356.215C372.59 354.776 373.399 352.825 373.401 350.789V191.067C373.396 189.034 372.585 187.085 371.146 185.648C369.708 184.21 367.758 183.402 365.724 183.399Z" fill="#3F3D56"/>
<path d="M363.745 188.944H131.003C129.914 188.946 128.871 189.38 128.102 190.151C127.333 190.922 126.901 191.966 126.901 193.055V348.819C126.902 349.906 127.335 350.949 128.104 351.718C128.873 352.487 129.916 352.92 131.003 352.921H363.745C364.833 352.92 365.875 352.487 366.644 351.718C367.413 350.949 367.846 349.906 367.848 348.819V193.055C367.848 191.966 367.416 190.922 366.647 190.151C365.878 189.38 364.834 188.946 363.745 188.944Z" fill="#00A3FF"/>
<path d="M320.911 417.498L318.761 407.288C318.672 406.872 318.48 406.484 318.203 406.161C317.926 405.838 317.572 405.589 317.175 405.437C316.887 405.324 316.58 405.266 316.271 405.266H182.094C181.785 405.266 181.478 405.324 181.19 405.437C180.792 405.589 180.439 405.838 180.162 406.161C179.885 406.484 179.693 406.872 179.604 407.288L177.454 417.498C177.377 417.868 177.383 418.252 177.472 418.62C177.561 418.988 177.731 419.331 177.969 419.625C178.208 419.919 178.509 420.157 178.851 420.32C179.192 420.483 179.566 420.568 179.945 420.568H318.411C318.791 420.57 319.167 420.486 319.51 420.322C319.852 420.158 320.153 419.918 320.39 419.621C320.629 419.328 320.8 418.986 320.89 418.618C320.98 418.251 320.987 417.868 320.911 417.498Z" fill="#2F2E41"/>
<path d="M186.926 407.105H183.494C183.264 407.105 183.078 407.292 183.078 407.522V409.248C183.078 409.478 183.264 409.664 183.494 409.664H186.926C187.156 409.664 187.343 409.478 187.343 409.248V407.522C187.343 407.292 187.156 407.105 186.926 407.105Z" fill="#3F3D56"/>
<path d="M195.456 407.105H192.024C191.794 407.105 191.607 407.292 191.607 407.522V409.248C191.607 409.478 191.794 409.664 192.024 409.664H195.456C195.686 409.664 195.872 409.478 195.872 409.248V407.522C195.872 407.292 195.686 407.105 195.456 407.105Z" fill="#3F3D56"/>
<path d="M203.985 407.105H200.553C200.323 407.105 200.137 407.292 200.137 407.522V409.248C200.137 409.478 200.323 409.664 200.553 409.664H203.985C204.215 409.664 204.401 409.478 204.401 409.248V407.522C204.401 407.292 204.215 407.105 203.985 407.105Z" fill="#3F3D56"/>
<path d="M212.514 407.105H209.082C208.853 407.105 208.666 407.292 208.666 407.522V409.248C208.666 409.478 208.853 409.664 209.082 409.664H212.514C212.744 409.664 212.931 409.478 212.931 409.248V407.522C212.931 407.292 212.744 407.105 212.514 407.105Z" fill="#3F3D56"/>
<path d="M221.044 407.105H217.612C217.382 407.105 217.195 407.292 217.195 407.522V409.248C217.195 409.478 217.382 409.664 217.612 409.664H221.044C221.274 409.664 221.46 409.478 221.46 409.248V407.522C221.46 407.292 221.274 407.105 221.044 407.105Z" fill="#3F3D56"/>
<path d="M229.573 407.105H226.141C225.911 407.105 225.725 407.292 225.725 407.522V409.248C225.725 409.478 225.911 409.664 226.141 409.664H229.573C229.803 409.664 229.99 409.478 229.99 409.248V407.522C229.99 407.292 229.803 407.105 229.573 407.105Z" fill="#3F3D56"/>
<path d="M238.103 407.105H234.671C234.441 407.105 234.254 407.292 234.254 407.522V409.248C234.254 409.478 234.441 409.664 234.671 409.664H238.103C238.333 409.664 238.519 409.478 238.519 409.248V407.522C238.519 407.292 238.333 407.105 238.103 407.105Z" fill="#3F3D56"/>
<path d="M246.632 407.105H243.2C242.97 407.105 242.784 407.292 242.784 407.522V409.248C242.784 409.478 242.97 409.664 243.2 409.664H246.632C246.862 409.664 247.048 409.478 247.048 409.248V407.522C247.048 407.292 246.862 407.105 246.632 407.105Z" fill="#3F3D56"/>
<path d="M255.161 407.105H251.73C251.5 407.105 251.313 407.292 251.313 407.522V409.248C251.313 409.478 251.5 409.664 251.73 409.664H255.161C255.391 409.664 255.578 409.478 255.578 409.248V407.522C255.578 407.292 255.391 407.105 255.161 407.105Z" fill="#3F3D56"/>
<path d="M263.691 407.105H260.259C260.029 407.105 259.843 407.292 259.843 407.522V409.248C259.843 409.478 260.029 409.664 260.259 409.664H263.691C263.921 409.664 264.107 409.478 264.107 409.248V407.522C264.107 407.292 263.921 407.105 263.691 407.105Z" fill="#3F3D56"/>
<path d="M272.22 407.105H268.788C268.558 407.105 268.372 407.292 268.372 407.522V409.248C268.372 409.478 268.558 409.664 268.788 409.664H272.22C272.45 409.664 272.637 409.478 272.637 409.248V407.522C272.637 407.292 272.45 407.105 272.22 407.105Z" fill="#3F3D56"/>
<path d="M280.75 407.105H277.318C277.088 407.105 276.901 407.292 276.901 407.522V409.248C276.901 409.478 277.088 409.664 277.318 409.664H280.75C280.98 409.664 281.166 409.478 281.166 409.248V407.522C281.166 407.292 280.98 407.105 280.75 407.105Z" fill="#3F3D56"/>
<path d="M289.279 407.105H285.847C285.617 407.105 285.431 407.292 285.431 407.522V409.248C285.431 409.478 285.617 409.664 285.847 409.664H289.279C289.509 409.664 289.696 409.478 289.696 409.248V407.522C289.696 407.292 289.509 407.105 289.279 407.105Z" fill="#3F3D56"/>
<path d="M297.809 407.105H294.377C294.147 407.105 293.96 407.292 293.96 407.522V409.248C293.96 409.478 294.147 409.664 294.377 409.664H297.809C298.038 409.664 298.225 409.478 298.225 409.248V407.522C298.225 407.292 298.038 407.105 297.809 407.105Z" fill="#3F3D56"/>
<path d="M306.338 407.105H302.906C302.676 407.105 302.49 407.292 302.49 407.522V409.248C302.49 409.478 302.676 409.664 302.906 409.664H306.338C306.568 409.664 306.754 409.478 306.754 409.248V407.522C306.754 407.292 306.568 407.105 306.338 407.105Z" fill="#3F3D56"/>
<path d="M314.867 407.105H311.435C311.205 407.105 311.019 407.292 311.019 407.522V409.248C311.019 409.478 311.205 409.664 311.435 409.664H314.867C315.097 409.664 315.284 409.478 315.284 409.248V407.522C315.284 407.292 315.097 407.105 314.867 407.105Z" fill="#3F3D56"/>
<path d="M186.825 411.37H183.393C183.163 411.37 182.977 411.556 182.977 411.786V413.512C182.977 413.742 183.163 413.929 183.393 413.929H186.825C187.055 413.929 187.242 413.742 187.242 413.512V411.786C187.242 411.556 187.055 411.37 186.825 411.37Z" fill="#3F3D56"/>
<path d="M195.355 411.37H191.923C191.693 411.37 191.506 411.556 191.506 411.786V413.512C191.506 413.742 191.693 413.929 191.923 413.929H195.355C195.585 413.929 195.771 413.742 195.771 413.512V411.786C195.771 411.556 195.585 411.37 195.355 411.37Z" fill="#3F3D56"/>
<path d="M203.884 411.37H200.452C200.222 411.37 200.036 411.556 200.036 411.786V413.512C200.036 413.742 200.222 413.929 200.452 413.929H203.884C204.114 413.929 204.301 413.742 204.301 413.512V411.786C204.301 411.556 204.114 411.37 203.884 411.37Z" fill="#3F3D56"/>
<path d="M212.414 411.37H208.982C208.752 411.37 208.565 411.556 208.565 411.786V413.512C208.565 413.742 208.752 413.929 208.982 413.929H212.414C212.644 413.929 212.83 413.742 212.83 413.512V411.786C212.83 411.556 212.644 411.37 212.414 411.37Z" fill="#3F3D56"/>
<path d="M220.943 411.37H217.511C217.281 411.37 217.095 411.556 217.095 411.786V413.512C217.095 413.742 217.281 413.929 217.511 413.929H220.943C221.173 413.929 221.359 413.742 221.359 413.512V411.786C221.359 411.556 221.173 411.37 220.943 411.37Z" fill="#3F3D56"/>
<path d="M229.472 411.37H226.041C225.811 411.37 225.624 411.556 225.624 411.786V413.512C225.624 413.742 225.811 413.929 226.041 413.929H229.472C229.702 413.929 229.889 413.742 229.889 413.512V411.786C229.889 411.556 229.702 411.37 229.472 411.37Z" fill="#3F3D56"/>
<path d="M238.002 411.37H234.57C234.34 411.37 234.154 411.556 234.154 411.786V413.512C234.154 413.742 234.34 413.929 234.57 413.929H238.002C238.232 413.929 238.418 413.742 238.418 413.512V411.786C238.418 411.556 238.232 411.37 238.002 411.37Z" fill="#3F3D56"/>
<path d="M246.531 411.37H243.099C242.869 411.37 242.683 411.556 242.683 411.786V413.512C242.683 413.742 242.869 413.929 243.099 413.929H246.531C246.761 413.929 246.948 413.742 246.948 413.512V411.786C246.948 411.556 246.761 411.37 246.531 411.37Z" fill="#3F3D56"/>
<path d="M255.061 411.37H251.629C251.399 411.37 251.212 411.556 251.212 411.786V413.512C251.212 413.742 251.399 413.929 251.629 413.929H255.061C255.291 413.929 255.477 413.742 255.477 413.512V411.786C255.477 411.556 255.291 411.37 255.061 411.37Z" fill="#3F3D56"/>
<path d="M263.59 411.37H260.158C259.928 411.37 259.742 411.556 259.742 411.786V413.512C259.742 413.742 259.928 413.929 260.158 413.929H263.59C263.82 413.929 264.006 413.742 264.006 413.512V411.786C264.006 411.556 263.82 411.37 263.59 411.37Z" fill="#3F3D56"/>
<path d="M272.119 411.37H268.688C268.458 411.37 268.271 411.556 268.271 411.786V413.512C268.271 413.742 268.458 413.929 268.688 413.929H272.119C272.349 413.929 272.536 413.742 272.536 413.512V411.786C272.536 411.556 272.349 411.37 272.119 411.37Z" fill="#3F3D56"/>
<path d="M280.649 411.37H277.217C276.987 411.37 276.801 411.556 276.801 411.786V413.512C276.801 413.742 276.987 413.929 277.217 413.929H280.649C280.879 413.929 281.065 413.742 281.065 413.512V411.786C281.065 411.556 280.879 411.37 280.649 411.37Z" fill="#3F3D56"/>
<path d="M289.178 411.37H285.746C285.516 411.37 285.33 411.556 285.33 411.786V413.512C285.33 413.742 285.516 413.929 285.746 413.929H289.178C289.408 413.929 289.595 413.742 289.595 413.512V411.786C289.595 411.556 289.408 411.37 289.178 411.37Z" fill="#3F3D56"/>
<path d="M297.708 411.37H294.276C294.046 411.37 293.859 411.556 293.859 411.786V413.512C293.859 413.742 294.046 413.929 294.276 413.929H297.708C297.938 413.929 298.124 413.742 298.124 413.512V411.786C298.124 411.556 297.938 411.37 297.708 411.37Z" fill="#3F3D56"/>
<path d="M306.237 411.37H302.805C302.575 411.37 302.389 411.556 302.389 411.786V413.512C302.389 413.742 302.575 413.929 302.805 413.929H306.237C306.467 413.929 306.654 413.742 306.654 413.512V411.786C306.654 411.556 306.467 411.37 306.237 411.37Z" fill="#3F3D56"/>
<path d="M314.767 411.37H311.335C311.105 411.37 310.918 411.556 310.918 411.786V413.512C310.918 413.742 311.105 413.929 311.335 413.929H314.767C314.997 413.929 315.183 413.742 315.183 413.512V411.786C315.183 411.556 314.997 411.37 314.767 411.37Z" fill="#3F3D56"/>
<path d="M257.619 416.488H224.335C224.105 416.488 223.918 416.674 223.918 416.904V418.63C223.918 418.86 224.105 419.046 224.335 419.046H257.619C257.849 419.046 258.036 418.86 258.036 418.63V416.904C258.036 416.674 257.849 416.488 257.619 416.488Z" fill="#3F3D56"/>
<path d="M352.05 210.401H134.274C134.048 210.396 133.832 210.302 133.674 210.14C133.516 209.979 133.427 209.761 133.427 209.535C133.427 209.308 133.516 209.091 133.674 208.929C133.832 208.767 134.048 208.674 134.274 208.669H352.05C352.276 208.674 352.492 208.767 352.65 208.929C352.808 209.091 352.897 209.308 352.897 209.535C352.897 209.761 352.808 209.979 352.65 210.14C352.492 210.302 352.276 210.396 352.05 210.401Z" fill="#3F3D56"/>
<path d="M149.098 204.247C151.901 204.247 154.174 201.924 154.174 199.058C154.174 196.193 151.901 193.87 149.098 193.87C146.295 193.87 144.023 196.193 144.023 199.058C144.023 201.924 146.295 204.247 149.098 204.247Z" fill="#3F3D56"/>
<path d="M166.631 204.247C169.434 204.247 171.707 201.924 171.707 199.058C171.707 196.193 169.434 193.87 166.631 193.87C163.828 193.87 161.556 196.193 161.556 199.058C161.556 201.924 163.828 204.247 166.631 204.247Z" fill="#3F3D56"/>
<path d="M184.165 204.247C186.968 204.247 189.24 201.924 189.24 199.058C189.24 196.193 186.968 193.87 184.165 193.87C181.361 193.87 179.089 196.193 179.089 199.058C179.089 201.924 181.361 204.247 184.165 204.247Z" fill="#3F3D56"/>
<path d="M341.492 195.153H329.039C328.793 195.159 328.559 195.261 328.387 195.437C328.215 195.613 328.118 195.849 328.118 196.095C328.118 196.342 328.215 196.578 328.387 196.754C328.559 196.93 328.793 197.032 329.039 197.038H341.492C341.74 197.034 341.976 196.934 342.15 196.757C342.324 196.581 342.421 196.343 342.421 196.095C342.421 195.848 342.324 195.61 342.15 195.434C341.976 195.257 341.74 195.156 341.492 195.153Z" fill="#3F3D56"/>
<path d="M341.492 198.693H329.039C328.793 198.698 328.558 198.8 328.386 198.976C328.214 199.152 328.117 199.389 328.117 199.635C328.117 199.882 328.214 200.118 328.386 200.294C328.558 200.471 328.793 200.572 329.039 200.578H341.492C341.74 200.575 341.977 200.474 342.151 200.298C342.326 200.121 342.423 199.883 342.423 199.635C342.423 199.387 342.326 199.149 342.151 198.973C341.977 198.796 341.74 198.696 341.492 198.693Z" fill="#3F3D56"/>
<path d="M341.492 202.232H329.039C328.793 202.238 328.559 202.34 328.387 202.516C328.215 202.692 328.118 202.929 328.118 203.175C328.118 203.421 328.215 203.658 328.387 203.834C328.559 204.01 328.793 204.112 329.039 204.117H341.492C341.74 204.114 341.976 204.013 342.15 203.837C342.324 203.66 342.421 203.423 342.421 203.175C342.421 202.927 342.324 202.689 342.15 202.513C341.976 202.337 341.74 202.236 341.492 202.232Z" fill="#3F3D56"/>
<path d="M153.052 230.527H148.577C147.221 230.527 146.121 231.627 146.121 232.984C146.121 234.34 147.221 235.44 148.577 235.44H153.052C154.409 235.44 155.508 234.34 155.508 232.984C155.508 231.627 154.409 230.527 153.052 230.527Z" fill="#E6E6E6"/>
<path d="M204.228 230.527H199.754C198.397 230.527 197.297 231.627 197.297 232.984C197.297 234.34 198.397 235.44 199.754 235.44H204.228C205.585 235.44 206.685 234.34 206.685 232.984C206.685 231.627 205.585 230.527 204.228 230.527Z" fill="#E6E6E6"/>
<path d="M218.728 230.527H214.254C212.897 230.527 211.797 231.627 211.797 232.984C211.797 234.34 212.897 235.44 214.254 235.44H218.728C220.085 235.44 221.185 234.34 221.185 232.984C221.185 231.627 220.085 230.527 218.728 230.527Z" fill="#E6E6E6"/>
<path d="M190.308 230.118H162.497C161.141 230.118 160.041 231.217 160.041 232.574C160.041 233.931 161.141 235.031 162.497 235.031H190.308C191.665 235.031 192.765 233.931 192.765 232.574C192.765 231.217 191.665 230.118 190.308 230.118Z" fill="#E6E6E6"/>
<path d="M258.544 230.118H230.733C229.376 230.118 228.276 231.217 228.276 232.574C228.276 233.931 229.376 235.031 230.733 235.031H258.544C259.9 235.031 261 233.931 261 232.574C261 231.217 259.9 230.118 258.544 230.118Z" fill="#E6E6E6"/>
<path d="M166.699 241.615H162.224C160.868 241.615 159.768 242.715 159.768 244.072C159.768 245.429 160.868 246.528 162.224 246.528H166.699C168.056 246.528 169.155 245.429 169.155 244.072C169.155 242.715 168.056 241.615 166.699 241.615Z" fill="#E6E6E6"/>
<path d="M217.876 241.615H213.401C212.044 241.615 210.944 242.715 210.944 244.072C210.944 245.429 212.044 246.528 213.401 246.528H217.876C219.232 246.528 220.332 245.429 220.332 244.072C220.332 242.715 219.232 241.615 217.876 241.615Z" fill="#E6E6E6"/>
<path d="M232.376 241.615H227.901C226.544 241.615 225.444 242.715 225.444 244.072C225.444 245.429 226.544 246.528 227.901 246.528H232.376C233.732 246.528 234.832 245.429 234.832 244.072C234.832 242.715 233.732 241.615 232.376 241.615Z" fill="#E6E6E6"/>
<path d="M203.955 241.206H176.145C174.788 241.206 173.688 242.306 173.688 243.662C173.688 245.019 174.788 246.119 176.145 246.119H203.955C205.312 246.119 206.412 245.019 206.412 243.662C206.412 242.306 205.312 241.206 203.955 241.206Z" fill="#E6E6E6"/>
<path d="M272.191 241.206H244.38C243.023 241.206 241.923 242.306 241.923 243.662C241.923 245.019 243.023 246.119 244.38 246.119H272.191C273.547 246.119 274.647 245.019 274.647 243.662C274.647 242.306 273.547 241.206 272.191 241.206Z" fill="#E6E6E6"/>
<path d="M180.346 252.704H175.871C174.515 252.704 173.415 253.803 173.415 255.16C173.415 256.517 174.515 257.617 175.871 257.617H180.346C181.703 257.617 182.803 256.517 182.803 255.16C182.803 253.803 181.703 252.704 180.346 252.704Z" fill="#E6E6E6"/>
<path d="M231.523 252.704H227.048C225.691 252.704 224.591 253.803 224.591 255.16C224.591 256.517 225.691 257.617 227.048 257.617H231.523C232.879 257.617 233.979 256.517 233.979 255.16C233.979 253.803 232.879 252.704 231.523 252.704Z" fill="#E6E6E6"/>
<path d="M246.023 252.704H241.548C240.191 252.704 239.091 253.803 239.091 255.16C239.091 256.517 240.191 257.617 241.548 257.617H246.023C247.379 257.617 248.479 256.517 248.479 255.16C248.479 253.803 247.379 252.704 246.023 252.704Z" fill="#E6E6E6"/>
<path d="M217.602 252.294H189.792C188.435 252.294 187.335 253.394 187.335 254.751C187.335 256.107 188.435 257.207 189.792 257.207H217.602C218.959 257.207 220.059 256.107 220.059 254.751C220.059 253.394 218.959 252.294 217.602 252.294Z" fill="#E6E6E6"/>
<path d="M285.838 252.294H258.027C256.67 252.294 255.57 253.394 255.57 254.751C255.57 256.107 256.67 257.207 258.027 257.207H285.838C287.194 257.207 288.294 256.107 288.294 254.751C288.294 253.394 287.194 252.294 285.838 252.294Z" fill="#E6E6E6"/>
<path d="M193.993 263.792H189.518C188.162 263.792 187.062 264.892 187.062 266.248C187.062 267.605 188.162 268.705 189.518 268.705H193.993C195.35 268.705 196.45 267.605 196.45 266.248C196.45 264.892 195.35 263.792 193.993 263.792Z" fill="#E6E6E6"/>
<path d="M245.17 263.792H240.695C239.338 263.792 238.239 264.892 238.239 266.248C238.239 267.605 239.338 268.705 240.695 268.705H245.17C246.526 268.705 247.626 267.605 247.626 266.248C247.626 264.892 246.526 263.792 245.17 263.792Z" fill="#E6E6E6"/>
<path d="M259.67 263.792H255.195C253.838 263.792 252.739 264.892 252.739 266.248C252.739 267.605 253.838 268.705 255.195 268.705H259.67C261.026 268.705 262.126 267.605 262.126 266.248C262.126 264.892 261.026 263.792 259.67 263.792Z" fill="#E6E6E6"/>
<path d="M231.249 263.382H203.439C202.082 263.382 200.982 264.482 200.982 265.839C200.982 267.195 202.082 268.295 203.439 268.295H231.249C232.606 268.295 233.706 267.195 233.706 265.839C233.706 264.482 232.606 263.382 231.249 263.382Z" fill="#E6E6E6"/>
<path d="M204.228 307.883H199.754C198.397 307.883 197.297 308.983 197.297 310.34C197.297 311.697 198.397 312.796 199.754 312.796H204.228C205.585 312.796 206.685 311.697 206.685 310.34C206.685 308.983 205.585 307.883 204.228 307.883Z" fill="#E6E6E6"/>
<path d="M218.728 307.883H214.254C212.897 307.883 211.797 308.983 211.797 310.34C211.797 311.697 212.897 312.796 214.254 312.796H218.728C220.085 312.796 221.185 311.697 221.185 310.34C221.185 308.983 220.085 307.883 218.728 307.883Z" fill="#E6E6E6"/>
<path d="M258.544 308.293H230.733C229.376 308.293 228.276 309.393 228.276 310.749C228.276 312.106 229.376 313.206 230.733 313.206H258.544C259.9 313.206 261 312.106 261 310.749C261 309.393 259.9 308.293 258.544 308.293Z" fill="#E6E6E6"/>
<path d="M153.052 307.883H148.577C147.221 307.883 146.121 308.983 146.121 310.34C146.121 311.697 147.221 312.796 148.577 312.796H153.052C154.409 312.796 155.508 311.697 155.508 310.34C155.508 308.983 154.409 307.883 153.052 307.883Z" fill="#E6E6E6"/>
<path d="M190.308 308.293H162.497C161.141 308.293 160.041 309.393 160.041 310.749C160.041 312.106 161.141 313.206 162.497 313.206H190.308C191.665 313.206 192.765 312.106 192.765 310.749C192.765 309.393 191.665 308.293 190.308 308.293Z" fill="#E6E6E6"/>
<path d="M166.699 296.795H162.224C160.868 296.795 159.768 297.895 159.768 299.252C159.768 300.608 160.868 301.708 162.224 301.708H166.699C168.056 301.708 169.155 300.608 169.155 299.252C169.155 297.895 168.056 296.795 166.699 296.795Z" fill="#E6E6E6"/>
<path d="M217.876 296.795H213.401C212.044 296.795 210.944 297.895 210.944 299.252C210.944 300.608 212.044 301.708 213.401 301.708H217.876C219.232 301.708 220.332 300.608 220.332 299.252C220.332 297.895 219.232 296.795 217.876 296.795Z" fill="#E6E6E6"/>
<path d="M232.376 296.795H227.901C226.544 296.795 225.444 297.895 225.444 299.252C225.444 300.608 226.544 301.708 227.901 301.708H232.376C233.732 301.708 234.832 300.608 234.832 299.252C234.832 297.895 233.732 296.795 232.376 296.795Z" fill="#E6E6E6"/>
<path d="M203.955 297.205H176.145C174.788 297.205 173.688 298.305 173.688 299.661C173.688 301.018 174.788 302.118 176.145 302.118H203.955C205.312 302.118 206.412 301.018 206.412 299.661C206.412 298.305 205.312 297.205 203.955 297.205Z" fill="#E6E6E6"/>
<path d="M180.346 285.707H175.871C174.515 285.707 173.415 286.807 173.415 288.163C173.415 289.52 174.515 290.62 175.871 290.62H180.346C181.703 290.62 182.803 289.52 182.803 288.163C182.803 286.807 181.703 285.707 180.346 285.707Z" fill="#E6E6E6"/>
<path d="M231.523 285.707H227.048C225.691 285.707 224.591 286.807 224.591 288.163C224.591 289.52 225.691 290.62 227.048 290.62H231.523C232.879 290.62 233.979 289.52 233.979 288.163C233.979 286.807 232.879 285.707 231.523 285.707Z" fill="#E6E6E6"/>
<path d="M246.023 285.707H241.548C240.191 285.707 239.091 286.807 239.091 288.163C239.091 289.52 240.191 290.62 241.548 290.62H246.023C247.379 290.62 248.479 289.52 248.479 288.163C248.479 286.807 247.379 285.707 246.023 285.707Z" fill="#E6E6E6"/>
<path d="M217.602 286.117H189.792C188.435 286.117 187.335 287.216 187.335 288.573C187.335 289.93 188.435 291.029 189.792 291.029H217.602C218.959 291.029 220.059 289.93 220.059 288.573C220.059 287.216 218.959 286.117 217.602 286.117Z" fill="#E6E6E6"/>
<path d="M193.993 274.619H189.518C188.162 274.619 187.062 275.719 187.062 277.075C187.062 278.432 188.162 279.532 189.518 279.532H193.993C195.35 279.532 196.45 278.432 196.45 277.075C196.45 275.719 195.35 274.619 193.993 274.619Z" fill="#E6E6E6"/>
<path d="M245.17 274.619H240.695C239.338 274.619 238.239 275.719 238.239 277.075C238.239 278.432 239.338 279.532 240.695 279.532H245.17C246.526 279.532 247.626 278.432 247.626 277.075C247.626 275.719 246.526 274.619 245.17 274.619Z" fill="#E6E6E6"/>
<path d="M259.67 274.619H255.195C253.838 274.619 252.739 275.719 252.739 277.075C252.739 278.432 253.838 279.532 255.195 279.532H259.67C261.026 279.532 262.126 278.432 262.126 277.075C262.126 275.719 261.026 274.619 259.67 274.619Z" fill="#E6E6E6"/>
<path d="M231.249 275.028H203.439C202.082 275.028 200.982 276.128 200.982 277.485C200.982 278.841 202.082 279.941 203.439 279.941H231.249C232.606 279.941 233.706 278.841 233.706 277.485C233.706 276.128 232.606 275.028 231.249 275.028Z" fill="#E6E6E6"/>
<path d="M354.661 468.069C354.141 468.333 353.612 468.597 353.092 468.853C339.616 475.591 328.834 479.421 314.087 483.618C312.842 469.715 311.639 445.278 310.471 430.13C310.164 426.198 309.856 422.897 309.558 420.568C309.483 419.33 309.23 418.109 308.807 416.943L308.859 420.568L308.986 430.13L309.729 484.812C291.384 489.666 272.54 492.382 253.571 492.906C252.581 492.932 251.609 492.949 250.671 492.966C250.338 492.974 250.014 492.983 249.69 492.983C248.624 492.991 247.566 493 246.5 493C226.511 493.015 206.593 490.6 187.186 485.81C187.604 472.052 188.022 447.888 188.423 430.13C188.509 426.658 188.585 423.426 188.671 420.568C188.833 414.461 189.003 410.06 189.165 408.584C189.022 408.846 188.91 409.124 188.833 409.412C188.043 413.09 187.504 416.817 187.221 420.568C186.922 423.426 186.624 426.658 186.325 430.13C184.739 448.579 183.084 473.664 181.378 484.3C171.224 481.528 161.261 478.101 151.551 474.039C146.433 471.907 141.406 469.607 136.471 467.139C137.409 460.998 138.39 454.114 139.396 446.975C140.181 441.44 140.991 435.751 141.819 430.13C143.098 421.447 144.411 412.934 145.742 405.437C147.687 394.485 149.683 385.683 151.661 381.64C153.538 377.802 155.414 374.015 157.231 370.39C157.862 369.119 158.494 367.865 159.108 366.645C159.253 366.355 159.398 366.074 159.543 365.792C160.848 363.225 162.11 360.769 163.313 358.466C164.345 356.495 165.326 354.636 166.255 352.921C168.507 348.759 170.418 345.441 171.834 343.343C177.753 334.364 186.565 327.679 196.808 324.399L197.064 324.331L197.243 324.408L214.685 319.051L217.236 318.266L218.95 317.738L224.989 313.14L228.273 310.641L231.352 308.296L237.374 303.715L274.656 306.01L281.914 323.486L298.171 329.431L298.453 329.304L298.7 329.201L298.956 329.269C309.197 332.553 318.008 339.237 323.93 348.213C324.732 349.416 325.704 351.002 326.804 352.921C327.743 354.551 328.766 356.41 329.875 358.466C331.453 361.391 333.176 364.692 335.001 368.266C335.402 369.051 335.811 369.852 336.221 370.663C336.98 372.164 337.751 373.696 338.532 375.26C340.349 378.885 342.226 382.672 344.102 386.519C345.731 389.854 347.377 396.711 348.998 405.437C350.337 412.687 351.668 421.234 352.956 430.13C354.644 441.661 352.845 455.471 354.371 466.081C354.465 466.755 354.568 467.412 354.661 468.069Z" fill="#3F3D56"/>
<path d="M247.025 289.765C270.972 289.765 290.385 270.352 290.385 246.405C290.385 222.457 270.972 203.044 247.025 203.044C223.077 203.044 203.664 222.457 203.664 246.405C203.664 270.352 223.077 289.765 247.025 289.765Z" fill="#A0616A"/>
<path d="M318.531 188.944C317.674 186.943 316.533 185.076 315.145 183.399C308.56 175.356 296.585 171.816 284.294 181.335C281.928 180.807 279.462 180.948 277.172 181.745C276.091 182.136 275.078 182.694 274.169 183.399C272.308 184.851 270.856 186.762 269.956 188.944C269.475 190.096 269.159 191.311 269.018 192.551C265.979 190.973 262.764 189.762 259.439 188.944C251.281 186.914 242.751 186.914 234.593 188.944C231.979 189.605 229.461 190.603 227.104 191.912C223.112 194.215 220.818 197.123 220.409 200.356C214.651 200.68 208.664 203.708 204.203 208.672C203.699 209.226 203.213 209.806 202.761 210.404C199.01 215.312 196.994 221.327 197.029 227.505V228.588H198.113C201.081 228.585 204.021 229.159 206.77 230.277C208.551 230.993 210.239 231.924 211.794 233.049C212.811 233.771 213.772 234.569 214.668 235.437C216.746 237.449 218.506 239.764 219.888 242.304C223.432 248.722 224.661 256.163 223.368 263.38C223.072 265.05 222.638 266.693 222.072 268.293C221.266 270.574 220.204 272.758 218.907 274.801C218.856 274.877 218.814 274.954 218.762 275.031C218.191 275.944 217.645 276.873 217.133 277.811C216.749 278.511 216.391 279.227 216.059 279.944C215.086 281.938 214.265 284.002 213.602 286.119C212.415 289.863 211.715 293.745 211.521 297.668C211.461 298.709 211.444 299.749 211.478 300.79C211.529 303.472 211.823 306.144 212.357 308.773C212.434 309.132 212.51 309.481 212.587 309.839L213.21 312.56L214.685 319.051L215.709 323.521L216.656 327.666L218.054 325.662C218.532 324.979 219.735 322.881 221.347 319.913C222.413 317.977 223.65 315.665 224.989 313.14C226.857 309.601 228.904 305.652 230.908 301.711C231.718 300.116 232.52 298.529 233.296 296.977C234.764 294.034 236.145 291.194 237.331 288.669C238.423 286.341 239.352 284.277 240.043 282.622C240.256 283.705 240.436 284.806 240.572 285.914C240.726 287.04 240.836 288.183 240.896 289.326C240.913 289.497 240.922 289.676 240.93 289.847L240.964 290.546L240.973 290.751L241.877 290.87C247.092 291.428 252.349 291.468 257.571 290.989H257.58C264.498 290.469 271.286 288.824 277.675 286.119C281.304 284.545 284.692 282.466 287.74 279.944C289.164 278.765 290.493 277.476 291.714 276.089C292.021 275.739 292.32 275.389 292.61 275.031C294.298 272.956 295.743 270.696 296.917 268.293C297.704 266.707 298.371 265.065 298.913 263.38C302.189 253.46 302.001 241.084 298.35 226.379C299.336 226.189 300.281 225.825 301.139 225.304C303.818 223.692 305.677 220.494 306.257 216.587L307.178 216.835C310.444 215.314 313.353 213.123 315.716 210.404C316.184 209.85 316.623 209.272 317.03 208.672C321.201 202.531 321.235 195.161 318.531 188.944Z" fill="#2F2E41"/>
<path opacity="0.2" d="M175.979 405.4L183.226 377.43L189.626 401.565L175.979 405.4Z" fill="black"/>
<path d="M368.837 387.176C366.244 422.897 368.931 438.625 354.619 468.077C341.597 474.451 328.032 479.652 314.087 483.618C312.637 484.027 311.184 484.425 309.729 484.812C291.384 489.666 272.539 492.382 253.571 492.906C252.581 492.932 251.609 492.949 250.671 492.966C250.338 492.974 250.014 492.983 249.69 492.983C248.624 492.991 247.566 493 246.5 493C226.511 493.015 206.593 490.6 187.186 485.81C185.242 485.332 183.306 484.829 181.378 484.3C171.224 481.528 161.261 478.1 151.551 474.039C146.433 471.907 141.406 469.607 136.471 467.139C135.353 466.576 134.236 466.013 133.136 465.433C127.481 455.488 124.265 443.393 124.197 428.859C128.112 403.816 360.189 365.579 368.837 387.176Z" fill="#2F2E41"/>
<path opacity="0.2" d="M368.831 393.293C368.963 391.082 369.111 388.797 369.284 386.418C360.635 364.822 128.558 403.059 124.643 428.102C124.654 430.398 124.752 432.626 124.917 434.801C134.398 410.084 354.874 373.742 368.831 393.293Z" fill="black"/>
<path d="M139.111 291.835C139.167 291.062 139.058 290.285 138.789 289.558C138.52 288.831 138.099 288.17 137.553 287.619C137.007 287.068 136.35 286.64 135.625 286.365C134.9 286.09 134.125 285.973 133.351 286.022C133.063 286.033 132.776 286.069 132.494 286.129L98.5792 293.791C97.8214 293.975 97.1104 294.315 96.4921 294.79C95.8738 295.266 95.362 295.865 94.9894 296.55C94.4921 296.569 93.9981 296.641 93.516 296.764C92.4607 297.004 91.4627 297.448 90.5792 298.073C89.6957 298.698 88.9439 299.491 88.3668 300.406C87.7897 301.322 87.3985 302.342 87.2156 303.408C87.0328 304.475 87.0618 305.567 87.301 306.623C87.5402 307.678 87.985 308.676 88.6099 309.559C89.2348 310.443 90.0275 311.195 90.943 311.772C92.7917 312.937 95.0278 313.321 97.1593 312.838C98.3725 312.556 99.5075 312.007 100.481 311.23L111.974 343.591C112.548 344.606 113.435 345.407 114.502 345.875C115.569 346.344 116.759 346.454 117.894 346.19L139.941 341.207C141.068 340.943 142.081 340.329 142.837 339.453C143.593 338.577 144.051 337.485 144.147 336.332L139.111 291.835ZM96.6503 310.534C95.1281 310.877 93.5318 310.603 92.2114 309.771C90.8911 308.939 89.9545 307.618 89.6069 306.097C89.2594 304.575 89.5294 302.978 90.3576 301.656C91.1858 300.333 92.5047 299.393 94.025 299.041C94.1321 299.015 94.2394 299.041 94.3465 299.015C94.3384 299.991 94.5879 300.952 95.0699 301.801L99.2756 309.141C98.5435 309.835 97.6358 310.317 96.6503 310.534Z" fill="#2F2E41"/>
<path d="M133.351 286.022C133.673 290.308 126.333 295.237 116.501 297.193C107.473 299.041 99.3828 297.755 97.1057 294.38C97.5634 294.109 98.0605 293.91 98.5792 293.791L132.494 286.129C132.776 286.069 133.063 286.033 133.351 286.022Z" fill="#3F3D56"/>
<path d="M109.896 394.831L128.945 385.306L113.071 342.445L108.887 320.83C108.344 318.022 107.072 315.405 105.201 313.242C103.329 311.079 100.923 309.445 98.2222 308.503C95.5213 307.562 92.6206 307.345 89.8099 307.876C86.9992 308.406 84.3769 309.665 82.2052 311.527C78.9869 314.285 76.9662 318.186 76.5696 322.406C76.1729 326.626 77.4313 330.836 80.0792 334.145L95.6089 353.557L109.896 394.831Z" fill="#A0616A"/>
<path d="M128.945 377.369L103.546 390.069L122.821 450.465C124.205 454.802 126.687 458.707 130.025 461.803C133.362 464.899 137.444 467.08 141.872 468.134C147.333 469.435 153.066 468.962 158.24 466.785C163.414 464.607 167.76 460.839 170.648 456.025L221.761 368.416C225.383 362.379 226.501 355.165 224.876 348.315C223.251 341.465 219.012 335.522 213.064 331.755C209.866 329.729 206.276 328.4 202.529 327.853C198.783 327.306 194.963 327.554 191.318 328.581C187.674 329.608 184.286 331.391 181.377 333.814C178.467 336.237 176.1 339.245 174.429 342.643L143.232 409.118L128.945 377.369Z" fill="#3F3D56"/>
<path d="M121.089 322.788C121.042 322.788 120.995 322.78 120.951 322.765L115.405 320.856C115.338 320.833 115.278 320.794 115.23 320.742C115.182 320.69 115.148 320.626 115.13 320.558C115.113 320.489 115.113 320.417 115.13 320.348C115.148 320.28 115.182 320.217 115.23 320.165L119.354 315.674C119.392 315.633 119.438 315.599 119.488 315.575C119.539 315.551 119.594 315.538 119.65 315.535C119.706 315.533 119.763 315.541 119.815 315.56C119.868 315.579 119.916 315.609 119.958 315.647C119.999 315.685 120.033 315.731 120.056 315.781C120.08 315.832 120.093 315.887 120.095 315.944C120.098 316 120.089 316.056 120.07 316.108C120.05 316.161 120.02 316.209 119.982 316.25L116.299 320.261L121.228 321.959C121.323 321.991 121.404 322.057 121.456 322.144C121.507 322.231 121.527 322.333 121.51 322.432C121.493 322.532 121.442 322.622 121.365 322.687C121.288 322.753 121.19 322.788 121.089 322.788Z" fill="#00A3FF"/>
<path d="M128.69 321.232C128.605 321.232 128.522 321.207 128.452 321.159C128.382 321.112 128.327 321.045 128.295 320.966C128.263 320.887 128.256 320.801 128.273 320.717C128.291 320.634 128.333 320.558 128.394 320.499L132.142 316.875L127.107 314.8C127.055 314.779 127.008 314.748 126.968 314.708C126.928 314.669 126.897 314.622 126.875 314.57C126.854 314.518 126.843 314.463 126.842 314.407C126.842 314.351 126.853 314.295 126.875 314.244C126.896 314.192 126.927 314.145 126.967 314.105C127.006 314.065 127.054 314.034 127.105 314.012C127.157 313.991 127.213 313.98 127.269 313.98C127.325 313.98 127.38 313.991 127.432 314.012L133.069 316.335C133.135 316.362 133.192 316.405 133.237 316.46C133.282 316.515 133.312 316.58 133.326 316.649C133.339 316.719 133.335 316.791 133.313 316.858C133.292 316.926 133.254 316.987 133.203 317.036L128.987 321.112C128.907 321.189 128.801 321.232 128.69 321.232Z" fill="#00A3FF"/>
<path d="M122.253 325.397C122.211 325.397 122.169 325.391 122.128 325.378C122.074 325.361 122.025 325.335 121.981 325.299C121.938 325.263 121.903 325.219 121.876 325.17C121.85 325.12 121.834 325.066 121.829 325.01C121.823 324.955 121.829 324.898 121.846 324.845L125.782 312.051C125.815 311.943 125.89 311.853 125.99 311.8C126.09 311.748 126.207 311.737 126.315 311.77C126.423 311.803 126.513 311.878 126.566 311.978C126.619 312.078 126.63 312.194 126.597 312.302L122.661 325.096C122.634 325.183 122.58 325.26 122.507 325.314C122.433 325.368 122.345 325.397 122.253 325.397Z" fill="#00A3FF"/>
</g>
<defs>
<clipPath id="clip0_107_345">
<rect width="493" height="493" fill="white"/>
</clipPath>
</defs>
</svg>
